<mxfile host="app.diagrams.net" modified="2020-10-28T16:33:58.860Z" agent="5.0 (Windows NT 6.1; Win64; x64) AppleWebKit/537.36 (KHTML, like Gecko) Chrome/86.0.4240.111 Safari/537.36" etag="NcRR_YPsRm5QP8cFCCF6" version="13.8.5" type="github">
  <diagram id="YE69xBtVCRSE5VGeOWay" name="Page-1">
    <mxGraphModel dx="1838" dy="567" grid="1" gridSize="10" guides="1" tooltips="1" connect="1" arrows="1" fold="1" page="1" pageScale="1" pageWidth="827" pageHeight="1169" math="0" shadow="0">
      <root>
        <mxCell id="0" />
        <mxCell id="1" parent="0" />
        <mxCell id="iiHJ2bzhxihyjnqLkJOd-1" value="Пользователь" style="shape=umlActor;verticalLabelPosition=bottom;verticalAlign=top;html=1;outlineConnect=0;" parent="1" vertex="1">
          <mxGeometry x="103.32999999999996" y="279.83" width="30" height="60" as="geometry" />
        </mxCell>
        <mxCell id="iiHJ2bzhxihyjnqLkJOd-2" value="Фотограф" style="shape=umlActor;verticalLabelPosition=bottom;verticalAlign=top;html=1;outlineConnect=0;" parent="1" vertex="1">
          <mxGeometry x="347.3299999999999" y="279.83" width="30" height="60" as="geometry" />
        </mxCell>
        <mxCell id="iiHJ2bzhxihyjnqLkJOd-3" value="&lt;font style=&quot;font-size: 17px&quot;&gt;&lt;b&gt;Диаграмма вариантов использования&amp;nbsp;&lt;/b&gt;&lt;/font&gt;" style="text;html=1;align=center;verticalAlign=middle;whiteSpace=wrap;rounded=0;" parent="1" vertex="1">
          <mxGeometry x="146.32999999999996" y="119.82999999999998" width="286" height="100" as="geometry" />
        </mxCell>
        <mxCell id="iiHJ2bzhxihyjnqLkJOd-8" value="" style="ellipse;whiteSpace=wrap;html=1;" parent="1" vertex="1">
          <mxGeometry x="206.57999999999996" y="396.33000000000004" width="60" height="30" as="geometry" />
        </mxCell>
        <mxCell id="iiHJ2bzhxihyjnqLkJOd-9" value="" style="ellipse;whiteSpace=wrap;html=1;" parent="1" vertex="1">
          <mxGeometry x="433.3299999999999" y="294.83" width="78" height="49" as="geometry" />
        </mxCell>
        <mxCell id="iiHJ2bzhxihyjnqLkJOd-10" value="" style="ellipse;whiteSpace=wrap;html=1;" parent="1" vertex="1">
          <mxGeometry x="207.07999999999996" y="279.83" width="60.5" height="40" as="geometry" />
        </mxCell>
        <mxCell id="iiHJ2bzhxihyjnqLkJOd-11" value="" style="ellipse;whiteSpace=wrap;html=1;" parent="1" vertex="1">
          <mxGeometry x="199.32999999999996" y="219.82999999999998" width="74" height="40" as="geometry" />
        </mxCell>
        <mxCell id="iiHJ2bzhxihyjnqLkJOd-12" value="" style="ellipse;whiteSpace=wrap;html=1;" parent="1" vertex="1">
          <mxGeometry x="202.57999999999996" y="343.83000000000004" width="76" height="35" as="geometry" />
        </mxCell>
        <mxCell id="iiHJ2bzhxihyjnqLkJOd-13" value="Регистрация" style="text;html=1;strokeColor=none;fillColor=none;align=center;verticalAlign=middle;whiteSpace=wrap;rounded=0;" parent="1" vertex="1">
          <mxGeometry x="216.32999999999996" y="229.82999999999998" width="40" height="20" as="geometry" />
        </mxCell>
        <mxCell id="iiHJ2bzhxihyjnqLkJOd-15" value="Выбор&amp;nbsp;" style="text;html=1;strokeColor=none;fillColor=none;align=center;verticalAlign=middle;whiteSpace=wrap;rounded=0;" parent="1" vertex="1">
          <mxGeometry x="220.57999999999996" y="289.83" width="40" height="20" as="geometry" />
        </mxCell>
        <mxCell id="iiHJ2bzhxihyjnqLkJOd-16" value="Оплата" style="text;html=1;strokeColor=none;fillColor=none;align=center;verticalAlign=middle;whiteSpace=wrap;rounded=0;" parent="1" vertex="1">
          <mxGeometry x="216.57999999999996" y="401.33000000000004" width="40" height="20" as="geometry" />
        </mxCell>
        <mxCell id="iiHJ2bzhxihyjnqLkJOd-17" value="Скачивание" style="text;html=1;strokeColor=none;fillColor=none;align=center;verticalAlign=middle;whiteSpace=wrap;rounded=0;" parent="1" vertex="1">
          <mxGeometry x="219.57999999999996" y="351.33000000000004" width="40" height="20" as="geometry" />
        </mxCell>
        <mxCell id="iiHJ2bzhxihyjnqLkJOd-20" value="Размещение фото" style="text;html=1;strokeColor=none;fillColor=none;align=center;verticalAlign=middle;whiteSpace=wrap;rounded=0;" parent="1" vertex="1">
          <mxGeometry x="432.3299999999999" y="299.83000000000004" width="80" height="40" as="geometry" />
        </mxCell>
        <mxCell id="iiHJ2bzhxihyjnqLkJOd-24" value="" style="endArrow=classic;html=1;" parent="1" edge="1">
          <mxGeometry width="50" height="50" relative="1" as="geometry">
            <mxPoint x="133.32999999999996" y="299.83000000000004" as="sourcePoint" />
            <mxPoint x="199.32999999999996" y="244.82999999999998" as="targetPoint" />
          </mxGeometry>
        </mxCell>
        <mxCell id="iiHJ2bzhxihyjnqLkJOd-26" value="" style="endArrow=classic;html=1;" parent="1" edge="1">
          <mxGeometry width="50" height="50" relative="1" as="geometry">
            <mxPoint x="333.3299999999999" y="299.83000000000004" as="sourcePoint" />
            <mxPoint x="273.3299999999999" y="244.82999999999998" as="targetPoint" />
          </mxGeometry>
        </mxCell>
        <mxCell id="iiHJ2bzhxihyjnqLkJOd-27" value="" style="endArrow=classic;html=1;" parent="1" edge="1">
          <mxGeometry width="50" height="50" relative="1" as="geometry">
            <mxPoint x="383.3299999999999" y="319.83000000000004" as="sourcePoint" />
            <mxPoint x="423.3299999999999" y="319.83000000000004" as="targetPoint" />
          </mxGeometry>
        </mxCell>
        <mxCell id="iiHJ2bzhxihyjnqLkJOd-28" value="" style="endArrow=classic;html=1;" parent="1" edge="1">
          <mxGeometry width="50" height="50" relative="1" as="geometry">
            <mxPoint x="133.32999999999996" y="309.83000000000004" as="sourcePoint" />
            <mxPoint x="199.32999999999996" y="299.83000000000004" as="targetPoint" />
          </mxGeometry>
        </mxCell>
        <mxCell id="iiHJ2bzhxihyjnqLkJOd-29" value="" style="endArrow=classic;html=1;" parent="1" edge="1">
          <mxGeometry width="50" height="50" relative="1" as="geometry">
            <mxPoint x="133.32999999999996" y="319.83000000000004" as="sourcePoint" />
            <mxPoint x="193.32999999999996" y="359.83000000000004" as="targetPoint" />
          </mxGeometry>
        </mxCell>
        <mxCell id="iiHJ2bzhxihyjnqLkJOd-30" value="" style="endArrow=classic;html=1;" parent="1" source="iiHJ2bzhxihyjnqLkJOd-1" edge="1">
          <mxGeometry width="50" height="50" relative="1" as="geometry">
            <mxPoint x="149.32999999999996" y="329.83000000000004" as="sourcePoint" />
            <mxPoint x="203.32999999999996" y="399.83000000000004" as="targetPoint" />
          </mxGeometry>
        </mxCell>
        <mxCell id="iiHJ2bzhxihyjnqLkJOd-31" value="" style="endArrow=none;dashed=1;html=1;" parent="1" edge="1">
          <mxGeometry width="50" height="50" relative="1" as="geometry">
            <mxPoint x="54.329999999999956" y="439.83000000000004" as="sourcePoint" />
            <mxPoint x="524.3299999999999" y="439.83000000000004" as="targetPoint" />
          </mxGeometry>
        </mxCell>
        <mxCell id="iiHJ2bzhxihyjnqLkJOd-32" value="" style="endArrow=none;dashed=1;html=1;" parent="1" edge="1">
          <mxGeometry width="50" height="50" relative="1" as="geometry">
            <mxPoint x="53.329999999999956" y="439.83000000000004" as="sourcePoint" />
            <mxPoint x="53.329999999999956" y="199.82999999999998" as="targetPoint" />
          </mxGeometry>
        </mxCell>
        <mxCell id="iiHJ2bzhxihyjnqLkJOd-33" value="" style="endArrow=none;dashed=1;html=1;" parent="1" edge="1">
          <mxGeometry width="50" height="50" relative="1" as="geometry">
            <mxPoint x="53.329999999999956" y="199.82999999999998" as="sourcePoint" />
            <mxPoint x="523.3299999999999" y="199.82999999999998" as="targetPoint" />
          </mxGeometry>
        </mxCell>
        <mxCell id="iiHJ2bzhxihyjnqLkJOd-34" value="" style="endArrow=none;dashed=1;html=1;" parent="1" edge="1">
          <mxGeometry width="50" height="50" relative="1" as="geometry">
            <mxPoint x="523.3299999999999" y="439.83000000000004" as="sourcePoint" />
            <mxPoint x="523.3299999999999" y="199.82999999999998" as="targetPoint" />
          </mxGeometry>
        </mxCell>
        <mxCell id="iiHJ2bzhxihyjnqLkJOd-60" value="&lt;font style=&quot;font-size: 17px&quot;&gt;&lt;b&gt;Диаграмма последовательности&amp;nbsp;&lt;/b&gt;&lt;/font&gt;" style="text;html=1;align=center;verticalAlign=middle;whiteSpace=wrap;rounded=0;" parent="1" vertex="1">
          <mxGeometry x="150" y="560" width="286" height="100" as="geometry" />
        </mxCell>
        <mxCell id="iiHJ2bzhxihyjnqLkJOd-63" value="" style="rounded=0;whiteSpace=wrap;html=1;" parent="1" vertex="1">
          <mxGeometry x="-210" y="680" width="100" height="40" as="geometry" />
        </mxCell>
        <mxCell id="iiHJ2bzhxihyjnqLkJOd-64" value="Пользователь" style="text;html=1;strokeColor=none;fillColor=none;align=center;verticalAlign=middle;whiteSpace=wrap;rounded=0;" parent="1" vertex="1">
          <mxGeometry x="-180" y="690" width="40" height="20" as="geometry" />
        </mxCell>
        <mxCell id="iiHJ2bzhxihyjnqLkJOd-65" value="" style="rounded=0;whiteSpace=wrap;html=1;" parent="1" vertex="1">
          <mxGeometry x="-60" y="680" width="100" height="40" as="geometry" />
        </mxCell>
        <mxCell id="iiHJ2bzhxihyjnqLkJOd-66" value="" style="rounded=0;whiteSpace=wrap;html=1;" parent="1" vertex="1">
          <mxGeometry x="90" y="680" width="100" height="40" as="geometry" />
        </mxCell>
        <mxCell id="iiHJ2bzhxihyjnqLkJOd-67" value="" style="rounded=0;whiteSpace=wrap;html=1;" parent="1" vertex="1">
          <mxGeometry x="420" y="680" width="100" height="40" as="geometry" />
        </mxCell>
        <mxCell id="iiHJ2bzhxihyjnqLkJOd-68" value="" style="rounded=0;whiteSpace=wrap;html=1;" parent="1" vertex="1">
          <mxGeometry x="240" y="680" width="100" height="40" as="geometry" />
        </mxCell>
        <mxCell id="iiHJ2bzhxihyjnqLkJOd-70" value="" style="endArrow=none;html=1;entryX=0.5;entryY=1;entryDx=0;entryDy=0;" parent="1" target="iiHJ2bzhxihyjnqLkJOd-63" edge="1">
          <mxGeometry width="50" height="50" relative="1" as="geometry">
            <mxPoint x="-160" y="960" as="sourcePoint" />
            <mxPoint x="-160" y="800" as="targetPoint" />
          </mxGeometry>
        </mxCell>
        <mxCell id="iiHJ2bzhxihyjnqLkJOd-71" value="" style="endArrow=none;html=1;entryX=0.5;entryY=1;entryDx=0;entryDy=0;" parent="1" edge="1">
          <mxGeometry width="50" height="50" relative="1" as="geometry">
            <mxPoint x="-10.41999999999976" y="960" as="sourcePoint" />
            <mxPoint x="-10.41999999999976" y="720" as="targetPoint" />
          </mxGeometry>
        </mxCell>
        <mxCell id="iiHJ2bzhxihyjnqLkJOd-72" value="" style="endArrow=none;html=1;entryX=0.5;entryY=1;entryDx=0;entryDy=0;" parent="1" edge="1">
          <mxGeometry width="50" height="50" relative="1" as="geometry">
            <mxPoint x="139.5800000000002" y="960" as="sourcePoint" />
            <mxPoint x="139.5800000000002" y="720" as="targetPoint" />
          </mxGeometry>
        </mxCell>
        <mxCell id="iiHJ2bzhxihyjnqLkJOd-73" value="" style="endArrow=none;html=1;entryX=0.5;entryY=1;entryDx=0;entryDy=0;" parent="1" edge="1">
          <mxGeometry width="50" height="50" relative="1" as="geometry">
            <mxPoint x="289.5800000000002" y="960" as="sourcePoint" />
            <mxPoint x="289.5800000000002" y="720" as="targetPoint" />
          </mxGeometry>
        </mxCell>
        <mxCell id="iiHJ2bzhxihyjnqLkJOd-74" value="" style="endArrow=none;html=1;entryX=0.5;entryY=1;entryDx=0;entryDy=0;" parent="1" edge="1">
          <mxGeometry width="50" height="50" relative="1" as="geometry">
            <mxPoint x="470.0000000000003" y="960" as="sourcePoint" />
            <mxPoint x="470.0000000000003" y="720" as="targetPoint" />
          </mxGeometry>
        </mxCell>
        <mxCell id="iiHJ2bzhxihyjnqLkJOd-75" value="Поле регистрации&amp;nbsp;" style="text;html=1;strokeColor=none;fillColor=none;align=center;verticalAlign=middle;whiteSpace=wrap;rounded=0;" parent="1" vertex="1">
          <mxGeometry x="-60" y="690" width="100" height="20" as="geometry" />
        </mxCell>
        <mxCell id="iiHJ2bzhxihyjnqLkJOd-76" value="Конопка ОК" style="text;html=1;strokeColor=none;fillColor=none;align=center;verticalAlign=middle;whiteSpace=wrap;rounded=0;" parent="1" vertex="1">
          <mxGeometry x="95" y="685" width="90" height="30" as="geometry" />
        </mxCell>
        <mxCell id="iiHJ2bzhxihyjnqLkJOd-77" value="БД" style="text;html=1;strokeColor=none;fillColor=none;align=center;verticalAlign=middle;whiteSpace=wrap;rounded=0;" parent="1" vertex="1">
          <mxGeometry x="270" y="690" width="40" height="20" as="geometry" />
        </mxCell>
        <mxCell id="iiHJ2bzhxihyjnqLkJOd-78" value="Гл страница пользователя" style="text;html=1;strokeColor=none;fillColor=none;align=center;verticalAlign=middle;whiteSpace=wrap;rounded=0;" parent="1" vertex="1">
          <mxGeometry x="426.5" y="690" width="87" height="20" as="geometry" />
        </mxCell>
        <mxCell id="iiHJ2bzhxihyjnqLkJOd-79" value="" style="endArrow=classic;html=1;" parent="1" edge="1">
          <mxGeometry width="50" height="50" relative="1" as="geometry">
            <mxPoint x="-160" y="760" as="sourcePoint" />
            <mxPoint x="-10" y="760" as="targetPoint" />
          </mxGeometry>
        </mxCell>
        <mxCell id="iiHJ2bzhxihyjnqLkJOd-80" value="Ввод ФИО" style="text;html=1;strokeColor=none;fillColor=none;align=center;verticalAlign=middle;whiteSpace=wrap;rounded=0;" parent="1" vertex="1">
          <mxGeometry x="-120" y="740" width="70" height="20" as="geometry" />
        </mxCell>
        <mxCell id="iiHJ2bzhxihyjnqLkJOd-81" value="" style="endArrow=classic;html=1;" parent="1" edge="1">
          <mxGeometry width="50" height="50" relative="1" as="geometry">
            <mxPoint x="-159.99999999999977" y="790" as="sourcePoint" />
            <mxPoint x="-9.999999999999773" y="790" as="targetPoint" />
          </mxGeometry>
        </mxCell>
        <mxCell id="iiHJ2bzhxihyjnqLkJOd-82" value="Ввод телефона&amp;nbsp;" style="text;html=1;strokeColor=none;fillColor=none;align=center;verticalAlign=middle;whiteSpace=wrap;rounded=0;" parent="1" vertex="1">
          <mxGeometry x="-130" y="770" width="100" height="20" as="geometry" />
        </mxCell>
        <mxCell id="iiHJ2bzhxihyjnqLkJOd-83" value="Нажатие&amp;nbsp;" style="text;html=1;strokeColor=none;fillColor=none;align=center;verticalAlign=middle;whiteSpace=wrap;rounded=0;" parent="1" vertex="1">
          <mxGeometry x="50" y="780" width="40" height="20" as="geometry" />
        </mxCell>
        <mxCell id="iiHJ2bzhxihyjnqLkJOd-84" value="" style="endArrow=classic;html=1;" parent="1" edge="1">
          <mxGeometry width="50" height="50" relative="1" as="geometry">
            <mxPoint x="-9.999999999999773" y="800" as="sourcePoint" />
            <mxPoint x="140.00000000000023" y="800" as="targetPoint" />
          </mxGeometry>
        </mxCell>
        <mxCell id="iiHJ2bzhxihyjnqLkJOd-85" value="" style="endArrow=classic;html=1;" parent="1" edge="1">
          <mxGeometry width="50" height="50" relative="1" as="geometry">
            <mxPoint x="140.00000000000023" y="810" as="sourcePoint" />
            <mxPoint x="290" y="810" as="targetPoint" />
          </mxGeometry>
        </mxCell>
        <mxCell id="iiHJ2bzhxihyjnqLkJOd-87" value="" style="endArrow=classic;html=1;" parent="1" edge="1">
          <mxGeometry width="50" height="50" relative="1" as="geometry">
            <mxPoint x="290" y="920" as="sourcePoint" />
            <mxPoint x="470" y="920" as="targetPoint" />
          </mxGeometry>
        </mxCell>
        <mxCell id="iiHJ2bzhxihyjnqLkJOd-88" value="Запрос на проверку&amp;nbsp;" style="text;html=1;strokeColor=none;fillColor=none;align=center;verticalAlign=middle;whiteSpace=wrap;rounded=0;" parent="1" vertex="1">
          <mxGeometry x="150" y="780" width="140" height="30" as="geometry" />
        </mxCell>
        <mxCell id="iiHJ2bzhxihyjnqLkJOd-90" value="" style="endArrow=classic;html=1;exitX=1;exitY=1;exitDx=0;exitDy=0;" parent="1" source="iiHJ2bzhxihyjnqLkJOd-88" edge="1">
          <mxGeometry width="50" height="50" relative="1" as="geometry">
            <mxPoint x="320" y="810" as="sourcePoint" />
            <mxPoint x="290" y="840" as="targetPoint" />
            <Array as="points">
              <mxPoint x="300" y="820" />
            </Array>
          </mxGeometry>
        </mxCell>
        <mxCell id="iiHJ2bzhxihyjnqLkJOd-91" value="Проверка пользователя&amp;nbsp;" style="text;html=1;strokeColor=none;fillColor=none;align=center;verticalAlign=middle;whiteSpace=wrap;rounded=0;" parent="1" vertex="1">
          <mxGeometry x="290" y="790" width="150" height="40" as="geometry" />
        </mxCell>
        <mxCell id="iiHJ2bzhxihyjnqLkJOd-92" value="Проверка Фотографа&amp;nbsp;" style="text;html=1;strokeColor=none;fillColor=none;align=center;verticalAlign=middle;whiteSpace=wrap;rounded=0;" parent="1" vertex="1">
          <mxGeometry x="286.25" y="840" width="152.75" height="20" as="geometry" />
        </mxCell>
        <mxCell id="iiHJ2bzhxihyjnqLkJOd-94" value="" style="endArrow=classic;html=1;" parent="1" edge="1">
          <mxGeometry width="50" height="50" relative="1" as="geometry">
            <mxPoint x="290" y="840" as="sourcePoint" />
            <mxPoint x="290" y="880" as="targetPoint" />
            <Array as="points">
              <mxPoint x="300" y="860" />
            </Array>
          </mxGeometry>
        </mxCell>
        <mxCell id="iiHJ2bzhxihyjnqLkJOd-95" value="" style="endArrow=classic;html=1;" parent="1" edge="1">
          <mxGeometry width="50" height="50" relative="1" as="geometry">
            <mxPoint x="290" y="880" as="sourcePoint" />
            <mxPoint x="290" y="920" as="targetPoint" />
            <Array as="points">
              <mxPoint x="300" y="900" />
            </Array>
          </mxGeometry>
        </mxCell>
        <mxCell id="iiHJ2bzhxihyjnqLkJOd-96" value="Проверка администратора&amp;nbsp;" style="text;html=1;strokeColor=none;fillColor=none;align=center;verticalAlign=middle;whiteSpace=wrap;rounded=0;" parent="1" vertex="1">
          <mxGeometry x="283" y="860" width="190" height="50" as="geometry" />
        </mxCell>
        <mxCell id="iiHJ2bzhxihyjnqLkJOd-97" value="Переход" style="text;html=1;strokeColor=none;fillColor=none;align=center;verticalAlign=middle;whiteSpace=wrap;rounded=0;" parent="1" vertex="1">
          <mxGeometry x="358" y="900" width="40" height="20" as="geometry" />
        </mxCell>
        <mxCell id="iiHJ2bzhxihyjnqLkJOd-98" value="" style="rounded=0;whiteSpace=wrap;html=1;" parent="1" vertex="1">
          <mxGeometry x="570" y="680" width="100" height="40" as="geometry" />
        </mxCell>
        <mxCell id="iiHJ2bzhxihyjnqLkJOd-99" value="Гл страница фотографа&amp;nbsp;" style="text;html=1;strokeColor=none;fillColor=none;align=center;verticalAlign=middle;whiteSpace=wrap;rounded=0;" parent="1" vertex="1">
          <mxGeometry x="576.5" y="690" width="87" height="20" as="geometry" />
        </mxCell>
        <mxCell id="iiHJ2bzhxihyjnqLkJOd-100" value="" style="rounded=0;whiteSpace=wrap;html=1;" parent="1" vertex="1">
          <mxGeometry x="720" y="680" width="100" height="40" as="geometry" />
        </mxCell>
        <mxCell id="iiHJ2bzhxihyjnqLkJOd-101" value="Гл станица администратора&amp;nbsp;" style="text;html=1;strokeColor=none;fillColor=none;align=center;verticalAlign=middle;whiteSpace=wrap;rounded=0;" parent="1" vertex="1">
          <mxGeometry x="715" y="667.5" width="110" height="65" as="geometry" />
        </mxCell>
        <mxCell id="VN3i59JF1z_-Vm6CVips-3" value="" style="rounded=0;whiteSpace=wrap;html=1;" parent="1" vertex="1">
          <mxGeometry x="-210" y="1000" width="100" height="40" as="geometry" />
        </mxCell>
        <mxCell id="VN3i59JF1z_-Vm6CVips-4" value="Пользователь" style="text;html=1;strokeColor=none;fillColor=none;align=center;verticalAlign=middle;whiteSpace=wrap;rounded=0;" parent="1" vertex="1">
          <mxGeometry x="-180" y="1010" width="40" height="20" as="geometry" />
        </mxCell>
        <mxCell id="VN3i59JF1z_-Vm6CVips-5" value="" style="endArrow=none;html=1;entryX=0.5;entryY=1;entryDx=0;entryDy=0;" parent="1" target="VN3i59JF1z_-Vm6CVips-3" edge="1">
          <mxGeometry width="50" height="50" relative="1" as="geometry">
            <mxPoint x="-160" y="1280" as="sourcePoint" />
            <mxPoint x="-150" y="1120" as="targetPoint" />
          </mxGeometry>
        </mxCell>
        <mxCell id="VN3i59JF1z_-Vm6CVips-9" value="" style="rounded=0;whiteSpace=wrap;html=1;" parent="1" vertex="1">
          <mxGeometry x="-50" y="1000" width="100" height="40" as="geometry" />
        </mxCell>
        <mxCell id="VN3i59JF1z_-Vm6CVips-10" value="Поле выбора&amp;nbsp;" style="text;html=1;strokeColor=none;fillColor=none;align=center;verticalAlign=middle;whiteSpace=wrap;rounded=0;" parent="1" vertex="1">
          <mxGeometry x="-20" y="1010" width="40" height="20" as="geometry" />
        </mxCell>
        <mxCell id="VN3i59JF1z_-Vm6CVips-11" value="" style="endArrow=none;html=1;entryX=0.5;entryY=1;entryDx=0;entryDy=0;" parent="1" target="VN3i59JF1z_-Vm6CVips-9" edge="1">
          <mxGeometry width="50" height="50" relative="1" as="geometry">
            <mxPoint y="1280" as="sourcePoint" />
            <mxPoint x="10" y="1120" as="targetPoint" />
          </mxGeometry>
        </mxCell>
        <mxCell id="VN3i59JF1z_-Vm6CVips-12" value="" style="rounded=0;whiteSpace=wrap;html=1;" parent="1" vertex="1">
          <mxGeometry x="270" y="1000" width="100" height="40" as="geometry" />
        </mxCell>
        <mxCell id="VN3i59JF1z_-Vm6CVips-13" value="БД" style="text;html=1;strokeColor=none;fillColor=none;align=center;verticalAlign=middle;whiteSpace=wrap;rounded=0;" parent="1" vertex="1">
          <mxGeometry x="300" y="1010" width="40" height="20" as="geometry" />
        </mxCell>
        <mxCell id="VN3i59JF1z_-Vm6CVips-14" value="" style="endArrow=none;html=1;entryX=0.5;entryY=1;entryDx=0;entryDy=0;" parent="1" target="VN3i59JF1z_-Vm6CVips-12" edge="1">
          <mxGeometry width="50" height="50" relative="1" as="geometry">
            <mxPoint x="320" y="1280" as="sourcePoint" />
            <mxPoint x="297" y="1120" as="targetPoint" />
          </mxGeometry>
        </mxCell>
        <mxCell id="VN3i59JF1z_-Vm6CVips-15" value="" style="rounded=0;whiteSpace=wrap;html=1;" parent="1" vertex="1">
          <mxGeometry x="427" y="1000" width="100" height="40" as="geometry" />
        </mxCell>
        <mxCell id="VN3i59JF1z_-Vm6CVips-16" value="Фотографии" style="text;html=1;strokeColor=none;fillColor=none;align=center;verticalAlign=middle;whiteSpace=wrap;rounded=0;" parent="1" vertex="1">
          <mxGeometry x="457" y="1010" width="40" height="20" as="geometry" />
        </mxCell>
        <mxCell id="VN3i59JF1z_-Vm6CVips-17" value="" style="endArrow=none;html=1;entryX=0.5;entryY=1;entryDx=0;entryDy=0;" parent="1" target="VN3i59JF1z_-Vm6CVips-15" edge="1">
          <mxGeometry width="50" height="50" relative="1" as="geometry">
            <mxPoint x="477" y="1270" as="sourcePoint" />
            <mxPoint x="540.25" y="1120" as="targetPoint" />
          </mxGeometry>
        </mxCell>
        <mxCell id="VN3i59JF1z_-Vm6CVips-21" value="" style="rounded=0;whiteSpace=wrap;html=1;" parent="1" vertex="1">
          <mxGeometry x="-200" y="1320" width="100" height="40" as="geometry" />
        </mxCell>
        <mxCell id="VN3i59JF1z_-Vm6CVips-22" value="Пользователь" style="text;html=1;strokeColor=none;fillColor=none;align=center;verticalAlign=middle;whiteSpace=wrap;rounded=0;" parent="1" vertex="1">
          <mxGeometry x="-170" y="1330" width="40" height="20" as="geometry" />
        </mxCell>
        <mxCell id="VN3i59JF1z_-Vm6CVips-23" value="" style="endArrow=none;html=1;entryX=0.5;entryY=1;entryDx=0;entryDy=0;" parent="1" target="VN3i59JF1z_-Vm6CVips-21" edge="1">
          <mxGeometry width="50" height="50" relative="1" as="geometry">
            <mxPoint x="-150" y="1640" as="sourcePoint" />
            <mxPoint x="-150" y="1440" as="targetPoint" />
          </mxGeometry>
        </mxCell>
        <mxCell id="VN3i59JF1z_-Vm6CVips-24" value="" style="rounded=0;whiteSpace=wrap;html=1;" parent="1" vertex="1">
          <mxGeometry x="-50" y="1320" width="100" height="40" as="geometry" />
        </mxCell>
        <mxCell id="VN3i59JF1z_-Vm6CVips-25" value="Поле оплаты" style="text;html=1;strokeColor=none;fillColor=none;align=center;verticalAlign=middle;whiteSpace=wrap;rounded=0;" parent="1" vertex="1">
          <mxGeometry x="-20" y="1330" width="40" height="20" as="geometry" />
        </mxCell>
        <mxCell id="VN3i59JF1z_-Vm6CVips-26" value="" style="endArrow=none;html=1;entryX=0.5;entryY=1;entryDx=0;entryDy=0;" parent="1" target="VN3i59JF1z_-Vm6CVips-24" edge="1">
          <mxGeometry width="50" height="50" relative="1" as="geometry">
            <mxPoint y="1640" as="sourcePoint" />
            <mxPoint x="-10" y="1440" as="targetPoint" />
          </mxGeometry>
        </mxCell>
        <mxCell id="VN3i59JF1z_-Vm6CVips-27" value="" style="rounded=0;whiteSpace=wrap;html=1;" parent="1" vertex="1">
          <mxGeometry x="110" y="1320" width="100" height="40" as="geometry" />
        </mxCell>
        <mxCell id="VN3i59JF1z_-Vm6CVips-28" value="Кнопка ОК" style="text;html=1;strokeColor=none;fillColor=none;align=center;verticalAlign=middle;whiteSpace=wrap;rounded=0;" parent="1" vertex="1">
          <mxGeometry x="140" y="1330" width="40" height="20" as="geometry" />
        </mxCell>
        <mxCell id="VN3i59JF1z_-Vm6CVips-29" value="" style="endArrow=none;html=1;entryX=0.5;entryY=1;entryDx=0;entryDy=0;" parent="1" target="VN3i59JF1z_-Vm6CVips-27" edge="1">
          <mxGeometry width="50" height="50" relative="1" as="geometry">
            <mxPoint x="160" y="1640" as="sourcePoint" />
            <mxPoint x="140" y="1440" as="targetPoint" />
          </mxGeometry>
        </mxCell>
        <mxCell id="VN3i59JF1z_-Vm6CVips-30" value="" style="rounded=0;whiteSpace=wrap;html=1;" parent="1" vertex="1">
          <mxGeometry x="270" y="1320" width="100" height="40" as="geometry" />
        </mxCell>
        <mxCell id="VN3i59JF1z_-Vm6CVips-31" value="БД" style="text;html=1;strokeColor=none;fillColor=none;align=center;verticalAlign=middle;whiteSpace=wrap;rounded=0;" parent="1" vertex="1">
          <mxGeometry x="300" y="1330" width="40" height="20" as="geometry" />
        </mxCell>
        <mxCell id="VN3i59JF1z_-Vm6CVips-32" value="" style="endArrow=none;html=1;entryX=0.5;entryY=1;entryDx=0;entryDy=0;" parent="1" target="VN3i59JF1z_-Vm6CVips-30" edge="1">
          <mxGeometry width="50" height="50" relative="1" as="geometry">
            <mxPoint x="320" y="1640" as="sourcePoint" />
            <mxPoint x="283.25" y="1440" as="targetPoint" />
          </mxGeometry>
        </mxCell>
        <mxCell id="VN3i59JF1z_-Vm6CVips-33" value="" style="rounded=0;whiteSpace=wrap;html=1;" parent="1" vertex="1">
          <mxGeometry x="420" y="1310" width="120" height="60" as="geometry" />
        </mxCell>
        <mxCell id="VN3i59JF1z_-Vm6CVips-34" value="Страница проверки оплаты&amp;nbsp;" style="text;html=1;strokeColor=none;fillColor=none;align=center;verticalAlign=middle;whiteSpace=wrap;rounded=0;" parent="1" vertex="1">
          <mxGeometry x="425" y="1317.5" width="110" height="45" as="geometry" />
        </mxCell>
        <mxCell id="VN3i59JF1z_-Vm6CVips-35" value="" style="endArrow=none;html=1;entryX=0.5;entryY=1;entryDx=0;entryDy=0;" parent="1" target="VN3i59JF1z_-Vm6CVips-33" edge="1">
          <mxGeometry width="50" height="50" relative="1" as="geometry">
            <mxPoint x="480" y="1640" as="sourcePoint" />
            <mxPoint x="472" y="1380" as="targetPoint" />
          </mxGeometry>
        </mxCell>
        <mxCell id="VN3i59JF1z_-Vm6CVips-36" value="" style="rounded=0;whiteSpace=wrap;html=1;" parent="1" vertex="1">
          <mxGeometry x="-210" y="1720" width="100" height="40" as="geometry" />
        </mxCell>
        <mxCell id="VN3i59JF1z_-Vm6CVips-37" value="Пользователь" style="text;html=1;strokeColor=none;fillColor=none;align=center;verticalAlign=middle;whiteSpace=wrap;rounded=0;" parent="1" vertex="1">
          <mxGeometry x="-180" y="1730" width="40" height="20" as="geometry" />
        </mxCell>
        <mxCell id="VN3i59JF1z_-Vm6CVips-38" value="" style="endArrow=none;html=1;entryX=0.5;entryY=1;entryDx=0;entryDy=0;" parent="1" target="VN3i59JF1z_-Vm6CVips-36" edge="1">
          <mxGeometry width="50" height="50" relative="1" as="geometry">
            <mxPoint x="-160" y="2000" as="sourcePoint" />
            <mxPoint x="-160" y="1840" as="targetPoint" />
          </mxGeometry>
        </mxCell>
        <mxCell id="VN3i59JF1z_-Vm6CVips-39" value="" style="rounded=0;whiteSpace=wrap;html=1;" parent="1" vertex="1">
          <mxGeometry x="-50" y="1720" width="100" height="40" as="geometry" />
        </mxCell>
        <mxCell id="VN3i59JF1z_-Vm6CVips-40" value="Поле скачивания" style="text;html=1;strokeColor=none;fillColor=none;align=center;verticalAlign=middle;whiteSpace=wrap;rounded=0;" parent="1" vertex="1">
          <mxGeometry x="-20" y="1730" width="40" height="20" as="geometry" />
        </mxCell>
        <mxCell id="VN3i59JF1z_-Vm6CVips-41" value="" style="endArrow=none;html=1;entryX=0.5;entryY=1;entryDx=0;entryDy=0;" parent="1" target="VN3i59JF1z_-Vm6CVips-39" edge="1">
          <mxGeometry width="50" height="50" relative="1" as="geometry">
            <mxPoint y="2000" as="sourcePoint" />
            <mxPoint y="1840" as="targetPoint" />
          </mxGeometry>
        </mxCell>
        <mxCell id="VN3i59JF1z_-Vm6CVips-42" value="" style="rounded=0;whiteSpace=wrap;html=1;" parent="1" vertex="1">
          <mxGeometry x="110" y="1720" width="100" height="40" as="geometry" />
        </mxCell>
        <mxCell id="VN3i59JF1z_-Vm6CVips-43" value="Кнопка ОК" style="text;html=1;strokeColor=none;fillColor=none;align=center;verticalAlign=middle;whiteSpace=wrap;rounded=0;" parent="1" vertex="1">
          <mxGeometry x="140" y="1730" width="40" height="20" as="geometry" />
        </mxCell>
        <mxCell id="VN3i59JF1z_-Vm6CVips-44" value="" style="endArrow=none;html=1;entryX=0.5;entryY=1;entryDx=0;entryDy=0;" parent="1" target="VN3i59JF1z_-Vm6CVips-42" edge="1">
          <mxGeometry width="50" height="50" relative="1" as="geometry">
            <mxPoint x="160" y="2000" as="sourcePoint" />
            <mxPoint x="160" y="1840" as="targetPoint" />
          </mxGeometry>
        </mxCell>
        <mxCell id="VN3i59JF1z_-Vm6CVips-45" value="" style="rounded=0;whiteSpace=wrap;html=1;" parent="1" vertex="1">
          <mxGeometry x="269.25" y="1720" width="100" height="40" as="geometry" />
        </mxCell>
        <mxCell id="VN3i59JF1z_-Vm6CVips-46" value="БД" style="text;html=1;strokeColor=none;fillColor=none;align=center;verticalAlign=middle;whiteSpace=wrap;rounded=0;" parent="1" vertex="1">
          <mxGeometry x="299.25" y="1730" width="40" height="20" as="geometry" />
        </mxCell>
        <mxCell id="VN3i59JF1z_-Vm6CVips-47" value="" style="endArrow=none;html=1;entryX=0.5;entryY=1;entryDx=0;entryDy=0;" parent="1" target="VN3i59JF1z_-Vm6CVips-45" edge="1">
          <mxGeometry width="50" height="50" relative="1" as="geometry">
            <mxPoint x="319.25" y="2000" as="sourcePoint" />
            <mxPoint x="319.25" y="1840" as="targetPoint" />
          </mxGeometry>
        </mxCell>
        <mxCell id="VN3i59JF1z_-Vm6CVips-48" value="" style="rounded=0;whiteSpace=wrap;html=1;" parent="1" vertex="1">
          <mxGeometry x="430" y="1720" width="100" height="40" as="geometry" />
        </mxCell>
        <mxCell id="VN3i59JF1z_-Vm6CVips-49" value="Страница фотографии" style="text;html=1;strokeColor=none;fillColor=none;align=center;verticalAlign=middle;whiteSpace=wrap;rounded=0;" parent="1" vertex="1">
          <mxGeometry x="460" y="1730" width="40" height="20" as="geometry" />
        </mxCell>
        <mxCell id="VN3i59JF1z_-Vm6CVips-50" value="" style="endArrow=none;html=1;entryX=0.5;entryY=1;entryDx=0;entryDy=0;" parent="1" target="VN3i59JF1z_-Vm6CVips-48" edge="1">
          <mxGeometry width="50" height="50" relative="1" as="geometry">
            <mxPoint x="480" y="2000" as="sourcePoint" />
            <mxPoint x="480" y="1840" as="targetPoint" />
          </mxGeometry>
        </mxCell>
        <mxCell id="VN3i59JF1z_-Vm6CVips-52" value="" style="endArrow=classic;html=1;" parent="1" edge="1">
          <mxGeometry width="50" height="50" relative="1" as="geometry">
            <mxPoint x="-159.99999999999977" y="1090" as="sourcePoint" />
            <mxPoint y="1090" as="targetPoint" />
          </mxGeometry>
        </mxCell>
        <mxCell id="VN3i59JF1z_-Vm6CVips-53" value="Ввод главных слов&amp;nbsp;" style="text;html=1;strokeColor=none;fillColor=none;align=center;verticalAlign=middle;whiteSpace=wrap;rounded=0;" parent="1" vertex="1">
          <mxGeometry x="-140" y="1060" width="120" height="30" as="geometry" />
        </mxCell>
        <mxCell id="VN3i59JF1z_-Vm6CVips-54" value="Ввод хеш-тега" style="text;html=1;strokeColor=none;fillColor=none;align=center;verticalAlign=middle;whiteSpace=wrap;rounded=0;" parent="1" vertex="1">
          <mxGeometry x="-150" y="1090" width="130" height="30" as="geometry" />
        </mxCell>
        <mxCell id="VN3i59JF1z_-Vm6CVips-55" value="" style="endArrow=classic;html=1;" parent="1" edge="1">
          <mxGeometry width="50" height="50" relative="1" as="geometry">
            <mxPoint x="-159.99999999999977" y="1120" as="sourcePoint" />
            <mxPoint y="1120" as="targetPoint" />
          </mxGeometry>
        </mxCell>
        <mxCell id="VN3i59JF1z_-Vm6CVips-56" value="" style="endArrow=classic;html=1;" parent="1" edge="1">
          <mxGeometry width="50" height="50" relative="1" as="geometry">
            <mxPoint x="2.2737367544323206e-13" y="1140" as="sourcePoint" />
            <mxPoint x="160" y="1140" as="targetPoint" />
          </mxGeometry>
        </mxCell>
        <mxCell id="VN3i59JF1z_-Vm6CVips-57" value="Запрос на проверку&amp;nbsp;" style="text;html=1;strokeColor=none;fillColor=none;align=center;verticalAlign=middle;whiteSpace=wrap;rounded=0;" parent="1" vertex="1">
          <mxGeometry x="164.25" y="1120" width="170" height="40" as="geometry" />
        </mxCell>
        <mxCell id="VN3i59JF1z_-Vm6CVips-58" value="" style="endArrow=classic;html=1;" parent="1" edge="1">
          <mxGeometry width="50" height="50" relative="1" as="geometry">
            <mxPoint x="317" y="1150" as="sourcePoint" />
            <mxPoint x="317" y="1190" as="targetPoint" />
            <Array as="points">
              <mxPoint x="330" y="1170" />
            </Array>
          </mxGeometry>
        </mxCell>
        <mxCell id="VN3i59JF1z_-Vm6CVips-59" value="Проверка&amp;nbsp;" style="text;html=1;strokeColor=none;fillColor=none;align=center;verticalAlign=middle;whiteSpace=wrap;rounded=0;" parent="1" vertex="1">
          <mxGeometry x="342" y="1140" width="40" height="20" as="geometry" />
        </mxCell>
        <mxCell id="VN3i59JF1z_-Vm6CVips-60" value="" style="endArrow=classic;html=1;" parent="1" edge="1">
          <mxGeometry width="50" height="50" relative="1" as="geometry">
            <mxPoint x="320.0000000000002" y="1190" as="sourcePoint" />
            <mxPoint x="480" y="1190" as="targetPoint" />
          </mxGeometry>
        </mxCell>
        <mxCell id="VN3i59JF1z_-Vm6CVips-61" value="Переход" style="text;html=1;strokeColor=none;fillColor=none;align=center;verticalAlign=middle;whiteSpace=wrap;rounded=0;" parent="1" vertex="1">
          <mxGeometry x="386.25" y="1169" width="40" height="20" as="geometry" />
        </mxCell>
        <mxCell id="VN3i59JF1z_-Vm6CVips-63" value="" style="endArrow=classic;html=1;" parent="1" edge="1">
          <mxGeometry width="50" height="50" relative="1" as="geometry">
            <mxPoint x="320" y="1189" as="sourcePoint" />
            <mxPoint x="-161.5" y="1189" as="targetPoint" />
          </mxGeometry>
        </mxCell>
        <mxCell id="VN3i59JF1z_-Vm6CVips-64" value="Сообщение о не наличии&amp;nbsp;" style="text;html=1;strokeColor=none;fillColor=none;align=center;verticalAlign=middle;whiteSpace=wrap;rounded=0;" parent="1" vertex="1">
          <mxGeometry x="-100" y="1160" width="190" height="40" as="geometry" />
        </mxCell>
        <mxCell id="VN3i59JF1z_-Vm6CVips-65" value="" style="endArrow=none;html=1;entryX=0.5;entryY=1;entryDx=0;entryDy=0;" parent="1" edge="1">
          <mxGeometry width="50" height="50" relative="1" as="geometry">
            <mxPoint x="619.5000000000005" y="960" as="sourcePoint" />
            <mxPoint x="619.5000000000005" y="720" as="targetPoint" />
          </mxGeometry>
        </mxCell>
        <mxCell id="VN3i59JF1z_-Vm6CVips-66" value="" style="endArrow=none;html=1;entryX=0.5;entryY=1;entryDx=0;entryDy=0;" parent="1" edge="1">
          <mxGeometry width="50" height="50" relative="1" as="geometry">
            <mxPoint x="769.5000000000005" y="960" as="sourcePoint" />
            <mxPoint x="769.5000000000005" y="720" as="targetPoint" />
          </mxGeometry>
        </mxCell>
        <mxCell id="VN3i59JF1z_-Vm6CVips-67" value="" style="endArrow=classic;html=1;" parent="1" edge="1">
          <mxGeometry width="50" height="50" relative="1" as="geometry">
            <mxPoint x="470" y="920" as="sourcePoint" />
            <mxPoint x="620" y="920" as="targetPoint" />
          </mxGeometry>
        </mxCell>
        <mxCell id="VN3i59JF1z_-Vm6CVips-68" value="" style="endArrow=classic;html=1;" parent="1" edge="1">
          <mxGeometry width="50" height="50" relative="1" as="geometry">
            <mxPoint x="620" y="920" as="sourcePoint" />
            <mxPoint x="770" y="920" as="targetPoint" />
          </mxGeometry>
        </mxCell>
        <mxCell id="VN3i59JF1z_-Vm6CVips-69" value="Переход" style="text;html=1;strokeColor=none;fillColor=none;align=center;verticalAlign=middle;whiteSpace=wrap;rounded=0;" parent="1" vertex="1">
          <mxGeometry x="530" y="900" width="40" height="20" as="geometry" />
        </mxCell>
        <mxCell id="VN3i59JF1z_-Vm6CVips-70" value="Переход" style="text;html=1;strokeColor=none;fillColor=none;align=center;verticalAlign=middle;whiteSpace=wrap;rounded=0;" parent="1" vertex="1">
          <mxGeometry x="680" y="900" width="40" height="20" as="geometry" />
        </mxCell>
        <mxCell id="VN3i59JF1z_-Vm6CVips-71" value="" style="endArrow=classic;html=1;" parent="1" edge="1">
          <mxGeometry width="50" height="50" relative="1" as="geometry">
            <mxPoint x="290" y="920" as="sourcePoint" />
            <mxPoint x="-160" y="920" as="targetPoint" />
          </mxGeometry>
        </mxCell>
        <mxCell id="VN3i59JF1z_-Vm6CVips-73" value="Сообщение" style="text;html=1;strokeColor=none;fillColor=none;align=center;verticalAlign=middle;whiteSpace=wrap;rounded=0;" parent="1" vertex="1">
          <mxGeometry x="50" y="900" width="40" height="20" as="geometry" />
        </mxCell>
        <mxCell id="VN3i59JF1z_-Vm6CVips-74" value="" style="rounded=0;whiteSpace=wrap;html=1;" parent="1" vertex="1">
          <mxGeometry x="113" y="1000" width="100" height="40" as="geometry" />
        </mxCell>
        <mxCell id="VN3i59JF1z_-Vm6CVips-75" value="Кнопка ОК" style="text;html=1;strokeColor=none;fillColor=none;align=center;verticalAlign=middle;whiteSpace=wrap;rounded=0;" parent="1" vertex="1">
          <mxGeometry x="133" y="1010" width="61" height="20" as="geometry" />
        </mxCell>
        <mxCell id="VN3i59JF1z_-Vm6CVips-76" value="" style="endArrow=none;html=1;entryX=0.5;entryY=1;entryDx=0;entryDy=0;" parent="1" edge="1">
          <mxGeometry width="50" height="50" relative="1" as="geometry">
            <mxPoint x="160" y="1280" as="sourcePoint" />
            <mxPoint x="160" y="1040" as="targetPoint" />
          </mxGeometry>
        </mxCell>
        <mxCell id="VN3i59JF1z_-Vm6CVips-77" value="Нажатие&amp;nbsp;" style="text;html=1;strokeColor=none;fillColor=none;align=center;verticalAlign=middle;whiteSpace=wrap;rounded=0;" parent="1" vertex="1">
          <mxGeometry x="55" y="1120" width="40" height="20" as="geometry" />
        </mxCell>
        <mxCell id="VN3i59JF1z_-Vm6CVips-78" value="" style="endArrow=classic;html=1;" parent="1" edge="1">
          <mxGeometry width="50" height="50" relative="1" as="geometry">
            <mxPoint x="160.00000000000023" y="1149.5" as="sourcePoint" />
            <mxPoint x="320" y="1149.5" as="targetPoint" />
          </mxGeometry>
        </mxCell>
        <mxCell id="HNv9V09Uws4JD42e5Bhb-1" value="" style="endArrow=classic;html=1;" parent="1" edge="1">
          <mxGeometry width="50" height="50" relative="1" as="geometry">
            <mxPoint x="-149.99999999999977" y="1399.5" as="sourcePoint" />
            <mxPoint y="1400" as="targetPoint" />
          </mxGeometry>
        </mxCell>
        <mxCell id="HNv9V09Uws4JD42e5Bhb-3" value="" style="endArrow=classic;html=1;" parent="1" edge="1">
          <mxGeometry width="50" height="50" relative="1" as="geometry">
            <mxPoint x="-149.99999999999977" y="1430" as="sourcePoint" />
            <mxPoint y="1430.5" as="targetPoint" />
          </mxGeometry>
        </mxCell>
        <mxCell id="HNv9V09Uws4JD42e5Bhb-4" value="" style="endArrow=classic;html=1;" parent="1" edge="1">
          <mxGeometry width="50" height="50" relative="1" as="geometry">
            <mxPoint x="-149.99999999999977" y="1460" as="sourcePoint" />
            <mxPoint y="1460.5" as="targetPoint" />
          </mxGeometry>
        </mxCell>
        <mxCell id="HNv9V09Uws4JD42e5Bhb-5" value="Ввод телефона&amp;nbsp;" style="text;html=1;strokeColor=none;fillColor=none;align=center;verticalAlign=middle;whiteSpace=wrap;rounded=0;" parent="1" vertex="1">
          <mxGeometry x="-150" y="1370" width="150" height="40" as="geometry" />
        </mxCell>
        <mxCell id="HNv9V09Uws4JD42e5Bhb-6" value="Ввод банковской карты" style="text;html=1;strokeColor=none;fillColor=none;align=center;verticalAlign=middle;whiteSpace=wrap;rounded=0;" parent="1" vertex="1">
          <mxGeometry x="-190" y="1390" width="230" height="60" as="geometry" />
        </mxCell>
        <mxCell id="HNv9V09Uws4JD42e5Bhb-7" value="Номер фотографии&amp;nbsp;" style="text;html=1;strokeColor=none;fillColor=none;align=center;verticalAlign=middle;whiteSpace=wrap;rounded=0;" parent="1" vertex="1">
          <mxGeometry x="-190" y="1430" width="240" height="40" as="geometry" />
        </mxCell>
        <mxCell id="HNv9V09Uws4JD42e5Bhb-9" value="" style="endArrow=classic;html=1;" parent="1" edge="1">
          <mxGeometry width="50" height="50" relative="1" as="geometry">
            <mxPoint x="2.2737367544323206e-13" y="1470" as="sourcePoint" />
            <mxPoint x="160" y="1470" as="targetPoint" />
          </mxGeometry>
        </mxCell>
        <mxCell id="HNv9V09Uws4JD42e5Bhb-10" value="Нажатие&amp;nbsp;" style="text;html=1;strokeColor=none;fillColor=none;align=center;verticalAlign=middle;whiteSpace=wrap;rounded=0;" parent="1" vertex="1">
          <mxGeometry x="60" y="1450" width="40" height="20" as="geometry" />
        </mxCell>
        <mxCell id="HNv9V09Uws4JD42e5Bhb-11" value="Запрос на проверку" style="text;html=1;strokeColor=none;fillColor=none;align=center;verticalAlign=middle;whiteSpace=wrap;rounded=0;" parent="1" vertex="1">
          <mxGeometry x="163" y="1450" width="160" height="40" as="geometry" />
        </mxCell>
        <mxCell id="HNv9V09Uws4JD42e5Bhb-12" value="" style="endArrow=classic;html=1;" parent="1" edge="1">
          <mxGeometry width="50" height="50" relative="1" as="geometry">
            <mxPoint x="160.00000000000023" y="1479.5" as="sourcePoint" />
            <mxPoint x="320" y="1479.5" as="targetPoint" />
          </mxGeometry>
        </mxCell>
        <mxCell id="HNv9V09Uws4JD42e5Bhb-13" value="" style="endArrow=classic;html=1;" parent="1" edge="1">
          <mxGeometry width="50" height="50" relative="1" as="geometry">
            <mxPoint x="321.37000000000023" y="1509.31" as="sourcePoint" />
            <mxPoint x="478.62" y="1509.31" as="targetPoint" />
          </mxGeometry>
        </mxCell>
        <mxCell id="HNv9V09Uws4JD42e5Bhb-14" value="Переход&amp;nbsp;" style="text;html=1;strokeColor=none;fillColor=none;align=center;verticalAlign=middle;whiteSpace=wrap;rounded=0;" parent="1" vertex="1">
          <mxGeometry x="380" y="1490" width="40" height="20" as="geometry" />
        </mxCell>
        <mxCell id="HNv9V09Uws4JD42e5Bhb-15" value="" style="rounded=0;whiteSpace=wrap;html=1;" parent="1" vertex="1">
          <mxGeometry x="910" y="1317.5" width="100" height="40" as="geometry" />
        </mxCell>
        <mxCell id="HNv9V09Uws4JD42e5Bhb-16" value="БД" style="text;html=1;strokeColor=none;fillColor=none;align=center;verticalAlign=middle;whiteSpace=wrap;rounded=0;" parent="1" vertex="1">
          <mxGeometry x="940" y="1327.5" width="40" height="20" as="geometry" />
        </mxCell>
        <mxCell id="HNv9V09Uws4JD42e5Bhb-17" value="" style="endArrow=none;html=1;entryX=0.5;entryY=1;entryDx=0;entryDy=0;" parent="1" edge="1">
          <mxGeometry width="50" height="50" relative="1" as="geometry">
            <mxPoint x="960" y="1640" as="sourcePoint" />
            <mxPoint x="959.58" y="1357.5" as="targetPoint" />
          </mxGeometry>
        </mxCell>
        <mxCell id="HNv9V09Uws4JD42e5Bhb-18" value="" style="endArrow=classic;html=1;" parent="1" edge="1">
          <mxGeometry width="50" height="50" relative="1" as="geometry">
            <mxPoint x="480.0000000000002" y="1550" as="sourcePoint" />
            <mxPoint x="640" y="1550" as="targetPoint" />
          </mxGeometry>
        </mxCell>
        <mxCell id="HNv9V09Uws4JD42e5Bhb-19" value="Запрос на проверку" style="text;html=1;strokeColor=none;fillColor=none;align=center;verticalAlign=middle;whiteSpace=wrap;rounded=0;" parent="1" vertex="1">
          <mxGeometry x="780" y="1540" width="160" height="40" as="geometry" />
        </mxCell>
        <mxCell id="HNv9V09Uws4JD42e5Bhb-20" value="Переход" style="text;html=1;strokeColor=none;fillColor=none;align=center;verticalAlign=middle;whiteSpace=wrap;rounded=0;" parent="1" vertex="1">
          <mxGeometry x="1020" y="1580" width="40" height="20" as="geometry" />
        </mxCell>
        <mxCell id="HNv9V09Uws4JD42e5Bhb-21" value="" style="rounded=0;whiteSpace=wrap;html=1;" parent="1" vertex="1">
          <mxGeometry x="1070" y="1320" width="100" height="40" as="geometry" />
        </mxCell>
        <mxCell id="HNv9V09Uws4JD42e5Bhb-22" value="Страница получения чека" style="text;html=1;strokeColor=none;fillColor=none;align=center;verticalAlign=middle;whiteSpace=wrap;rounded=0;" parent="1" vertex="1">
          <mxGeometry x="1070" y="1320" width="100" height="40" as="geometry" />
        </mxCell>
        <mxCell id="HNv9V09Uws4JD42e5Bhb-23" value="" style="endArrow=none;html=1;entryX=0.5;entryY=1;entryDx=0;entryDy=0;" parent="1" edge="1">
          <mxGeometry width="50" height="50" relative="1" as="geometry">
            <mxPoint x="1120" y="1640" as="sourcePoint" />
            <mxPoint x="1119.58" y="1360" as="targetPoint" />
          </mxGeometry>
        </mxCell>
        <mxCell id="HNv9V09Uws4JD42e5Bhb-24" value="" style="endArrow=classic;html=1;" parent="1" edge="1">
          <mxGeometry width="50" height="50" relative="1" as="geometry">
            <mxPoint x="960" y="1600" as="sourcePoint" />
            <mxPoint x="1120" y="1600" as="targetPoint" />
          </mxGeometry>
        </mxCell>
        <mxCell id="HNv9V09Uws4JD42e5Bhb-25" value="" style="rounded=0;whiteSpace=wrap;html=1;" parent="1" vertex="1">
          <mxGeometry x="1230" y="1320" width="100" height="40" as="geometry" />
        </mxCell>
        <mxCell id="HNv9V09Uws4JD42e5Bhb-26" value="Чек" style="text;html=1;strokeColor=none;fillColor=none;align=center;verticalAlign=middle;whiteSpace=wrap;rounded=0;" parent="1" vertex="1">
          <mxGeometry x="1230" y="1320" width="100" height="40" as="geometry" />
        </mxCell>
        <mxCell id="HNv9V09Uws4JD42e5Bhb-27" value="" style="endArrow=none;html=1;entryX=0.5;entryY=1;entryDx=0;entryDy=0;" parent="1" edge="1">
          <mxGeometry width="50" height="50" relative="1" as="geometry">
            <mxPoint x="1280" y="1640" as="sourcePoint" />
            <mxPoint x="1279.58" y="1360" as="targetPoint" />
          </mxGeometry>
        </mxCell>
        <mxCell id="HNv9V09Uws4JD42e5Bhb-28" value="" style="endArrow=classic;html=1;" parent="1" edge="1">
          <mxGeometry width="50" height="50" relative="1" as="geometry">
            <mxPoint x="1120" y="1610" as="sourcePoint" />
            <mxPoint x="1280" y="1610" as="targetPoint" />
          </mxGeometry>
        </mxCell>
        <mxCell id="HNv9V09Uws4JD42e5Bhb-29" value="Получение" style="text;html=1;strokeColor=none;fillColor=none;align=center;verticalAlign=middle;whiteSpace=wrap;rounded=0;" parent="1" vertex="1">
          <mxGeometry x="1180" y="1590" width="40" height="20" as="geometry" />
        </mxCell>
        <mxCell id="HNv9V09Uws4JD42e5Bhb-30" value="" style="endArrow=classic;html=1;" parent="1" edge="1">
          <mxGeometry width="50" height="50" relative="1" as="geometry">
            <mxPoint x="318.8700000000001" y="1509.62" as="sourcePoint" />
            <mxPoint x="-150" y="1509" as="targetPoint" />
          </mxGeometry>
        </mxCell>
        <mxCell id="HNv9V09Uws4JD42e5Bhb-31" value="Сообщение" style="text;html=1;strokeColor=none;fillColor=none;align=center;verticalAlign=middle;whiteSpace=wrap;rounded=0;" parent="1" vertex="1">
          <mxGeometry x="90" y="1490" width="40" height="20" as="geometry" />
        </mxCell>
        <mxCell id="HNv9V09Uws4JD42e5Bhb-32" value="" style="endArrow=classic;html=1;exitX=1;exitY=0.75;exitDx=0;exitDy=0;" parent="1" source="HNv9V09Uws4JD42e5Bhb-11" edge="1">
          <mxGeometry width="50" height="50" relative="1" as="geometry">
            <mxPoint x="345.25" y="1465" as="sourcePoint" />
            <mxPoint x="320" y="1510" as="targetPoint" />
            <Array as="points">
              <mxPoint x="345" y="1490" />
            </Array>
          </mxGeometry>
        </mxCell>
        <mxCell id="HNv9V09Uws4JD42e5Bhb-33" value="Проверка" style="text;html=1;strokeColor=none;fillColor=none;align=center;verticalAlign=middle;whiteSpace=wrap;rounded=0;" parent="1" vertex="1">
          <mxGeometry x="342" y="1470" width="40" height="20" as="geometry" />
        </mxCell>
        <mxCell id="HNv9V09Uws4JD42e5Bhb-36" value="" style="endArrow=classic;html=1;" parent="1" edge="1">
          <mxGeometry width="50" height="50" relative="1" as="geometry">
            <mxPoint x="480" y="1510" as="sourcePoint" />
            <mxPoint x="480" y="1540" as="targetPoint" />
            <Array as="points">
              <mxPoint x="490" y="1520" />
            </Array>
          </mxGeometry>
        </mxCell>
        <mxCell id="HNv9V09Uws4JD42e5Bhb-37" value="Получение кода" style="text;html=1;strokeColor=none;fillColor=none;align=center;verticalAlign=middle;whiteSpace=wrap;rounded=0;" parent="1" vertex="1">
          <mxGeometry x="495" y="1500" width="40" height="20" as="geometry" />
        </mxCell>
        <mxCell id="HNv9V09Uws4JD42e5Bhb-39" value="Ввод кода&amp;nbsp;" style="text;html=1;strokeColor=none;fillColor=none;align=center;verticalAlign=middle;whiteSpace=wrap;rounded=0;" parent="1" vertex="1">
          <mxGeometry x="510" y="1520" width="100" height="30" as="geometry" />
        </mxCell>
        <mxCell id="HNv9V09Uws4JD42e5Bhb-40" value="" style="rounded=0;whiteSpace=wrap;html=1;" parent="1" vertex="1">
          <mxGeometry x="590" y="1320" width="100" height="40" as="geometry" />
        </mxCell>
        <mxCell id="HNv9V09Uws4JD42e5Bhb-41" value="Панель ввода кода&amp;nbsp;" style="text;html=1;strokeColor=none;fillColor=none;align=center;verticalAlign=middle;whiteSpace=wrap;rounded=0;" parent="1" vertex="1">
          <mxGeometry x="595" y="1325" width="90" height="30" as="geometry" />
        </mxCell>
        <mxCell id="HNv9V09Uws4JD42e5Bhb-42" value="" style="endArrow=none;html=1;entryX=0.5;entryY=1;entryDx=0;entryDy=0;" parent="1" edge="1">
          <mxGeometry width="50" height="50" relative="1" as="geometry">
            <mxPoint x="640" y="1640" as="sourcePoint" />
            <mxPoint x="639.5799999999999" y="1360" as="targetPoint" />
          </mxGeometry>
        </mxCell>
        <mxCell id="HNv9V09Uws4JD42e5Bhb-43" value="" style="endArrow=classic;html=1;" parent="1" edge="1">
          <mxGeometry width="50" height="50" relative="1" as="geometry">
            <mxPoint x="760" y="1572.21" as="sourcePoint" />
            <mxPoint x="960" y="1572" as="targetPoint" />
          </mxGeometry>
        </mxCell>
        <mxCell id="HNv9V09Uws4JD42e5Bhb-44" value="" style="endArrow=classic;html=1;" parent="1" edge="1">
          <mxGeometry width="50" height="50" relative="1" as="geometry">
            <mxPoint x="960" y="1570" as="sourcePoint" />
            <mxPoint x="960" y="1600" as="targetPoint" />
            <Array as="points">
              <mxPoint x="980" y="1580" />
            </Array>
          </mxGeometry>
        </mxCell>
        <mxCell id="HNv9V09Uws4JD42e5Bhb-45" value="Проверка" style="text;html=1;strokeColor=none;fillColor=none;align=center;verticalAlign=middle;whiteSpace=wrap;rounded=0;" parent="1" vertex="1">
          <mxGeometry x="980" y="1560" width="40" height="20" as="geometry" />
        </mxCell>
        <mxCell id="HNv9V09Uws4JD42e5Bhb-46" value="" style="rounded=0;whiteSpace=wrap;html=1;" parent="1" vertex="1">
          <mxGeometry x="710" y="1320" width="100" height="40" as="geometry" />
        </mxCell>
        <mxCell id="HNv9V09Uws4JD42e5Bhb-47" value="Кнопка ОК&amp;nbsp;" style="text;html=1;strokeColor=none;fillColor=none;align=center;verticalAlign=middle;whiteSpace=wrap;rounded=0;" parent="1" vertex="1">
          <mxGeometry x="725" y="1325" width="70" height="30" as="geometry" />
        </mxCell>
        <mxCell id="HNv9V09Uws4JD42e5Bhb-48" value="" style="endArrow=none;html=1;entryX=0.5;entryY=1;entryDx=0;entryDy=0;" parent="1" edge="1">
          <mxGeometry width="50" height="50" relative="1" as="geometry">
            <mxPoint x="760" y="1640" as="sourcePoint" />
            <mxPoint x="759.7099999999999" y="1360" as="targetPoint" />
          </mxGeometry>
        </mxCell>
        <mxCell id="HNv9V09Uws4JD42e5Bhb-49" value="" style="endArrow=classic;html=1;" parent="1" edge="1">
          <mxGeometry width="50" height="50" relative="1" as="geometry">
            <mxPoint x="640" y="1560" as="sourcePoint" />
            <mxPoint x="760" y="1560" as="targetPoint" />
          </mxGeometry>
        </mxCell>
        <mxCell id="HNv9V09Uws4JD42e5Bhb-50" value="Нажатие&amp;nbsp;" style="text;html=1;strokeColor=none;fillColor=none;align=center;verticalAlign=middle;whiteSpace=wrap;rounded=0;" parent="1" vertex="1">
          <mxGeometry x="680" y="1540" width="40" height="20" as="geometry" />
        </mxCell>
        <mxCell id="HNv9V09Uws4JD42e5Bhb-51" value="" style="endArrow=classic;html=1;" parent="1" edge="1">
          <mxGeometry width="50" height="50" relative="1" as="geometry">
            <mxPoint x="960" y="1600" as="sourcePoint" />
            <mxPoint x="-153" y="1600" as="targetPoint" />
          </mxGeometry>
        </mxCell>
        <mxCell id="HNv9V09Uws4JD42e5Bhb-52" value="Сообщение" style="text;html=1;strokeColor=none;fillColor=none;align=center;verticalAlign=middle;whiteSpace=wrap;rounded=0;" parent="1" vertex="1">
          <mxGeometry x="80" y="1580" width="40" height="20" as="geometry" />
        </mxCell>
        <mxCell id="tamoDQdrDfBCyCGHD9lu-2" value="" style="endArrow=classic;html=1;" parent="1" edge="1">
          <mxGeometry width="50" height="50" relative="1" as="geometry">
            <mxPoint x="-160" y="1800" as="sourcePoint" />
            <mxPoint y="1800" as="targetPoint" />
          </mxGeometry>
        </mxCell>
        <mxCell id="tamoDQdrDfBCyCGHD9lu-3" value="Номер фото" style="text;html=1;strokeColor=none;fillColor=none;align=center;verticalAlign=middle;whiteSpace=wrap;rounded=0;" parent="1" vertex="1">
          <mxGeometry x="-130" y="1770" width="100" height="40" as="geometry" />
        </mxCell>
        <mxCell id="tamoDQdrDfBCyCGHD9lu-4" value="" style="endArrow=classic;html=1;" parent="1" edge="1">
          <mxGeometry width="50" height="50" relative="1" as="geometry">
            <mxPoint x="2.2737367544323206e-13" y="1810" as="sourcePoint" />
            <mxPoint x="160.00000000000023" y="1810" as="targetPoint" />
          </mxGeometry>
        </mxCell>
        <mxCell id="tamoDQdrDfBCyCGHD9lu-5" value="Нажатие&amp;nbsp;" style="text;html=1;strokeColor=none;fillColor=none;align=center;verticalAlign=middle;whiteSpace=wrap;rounded=0;" parent="1" vertex="1">
          <mxGeometry x="60" y="1790" width="40" height="20" as="geometry" />
        </mxCell>
        <mxCell id="tamoDQdrDfBCyCGHD9lu-6" value="" style="endArrow=classic;html=1;" parent="1" edge="1">
          <mxGeometry width="50" height="50" relative="1" as="geometry">
            <mxPoint x="160.00000000000023" y="1820" as="sourcePoint" />
            <mxPoint x="320" y="1820" as="targetPoint" />
          </mxGeometry>
        </mxCell>
        <mxCell id="tamoDQdrDfBCyCGHD9lu-7" value="Запрос на проверку" style="text;html=1;strokeColor=none;fillColor=none;align=center;verticalAlign=middle;whiteSpace=wrap;rounded=0;" parent="1" vertex="1">
          <mxGeometry x="160" y="1790" width="160" height="40" as="geometry" />
        </mxCell>
        <mxCell id="tamoDQdrDfBCyCGHD9lu-8" value="Проверка" style="text;html=1;strokeColor=none;fillColor=none;align=center;verticalAlign=middle;whiteSpace=wrap;rounded=0;" parent="1" vertex="1">
          <mxGeometry x="334.25" y="1810" width="40" height="20" as="geometry" />
        </mxCell>
        <mxCell id="tamoDQdrDfBCyCGHD9lu-10" value="" style="endArrow=classic;html=1;exitX=1;exitY=1;exitDx=0;exitDy=0;" parent="1" source="tamoDQdrDfBCyCGHD9lu-7" edge="1">
          <mxGeometry width="50" height="50" relative="1" as="geometry">
            <mxPoint x="380" y="1910" as="sourcePoint" />
            <mxPoint x="320" y="1860" as="targetPoint" />
            <Array as="points">
              <mxPoint x="340" y="1840" />
            </Array>
          </mxGeometry>
        </mxCell>
        <mxCell id="tamoDQdrDfBCyCGHD9lu-11" value="" style="endArrow=classic;html=1;" parent="1" edge="1">
          <mxGeometry width="50" height="50" relative="1" as="geometry">
            <mxPoint x="320.0000000000002" y="1870" as="sourcePoint" />
            <mxPoint x="480" y="1870" as="targetPoint" />
          </mxGeometry>
        </mxCell>
        <mxCell id="tamoDQdrDfBCyCGHD9lu-12" value="Переход&amp;nbsp;" style="text;html=1;strokeColor=none;fillColor=none;align=center;verticalAlign=middle;whiteSpace=wrap;rounded=0;" parent="1" vertex="1">
          <mxGeometry x="382" y="1850" width="40" height="20" as="geometry" />
        </mxCell>
        <mxCell id="tamoDQdrDfBCyCGHD9lu-13" value="Сообщение" style="text;html=1;strokeColor=none;fillColor=none;align=center;verticalAlign=middle;whiteSpace=wrap;rounded=0;" parent="1" vertex="1">
          <mxGeometry x="80" y="1850" width="40" height="20" as="geometry" />
        </mxCell>
        <mxCell id="tamoDQdrDfBCyCGHD9lu-14" value="" style="endArrow=classic;html=1;" parent="1" edge="1">
          <mxGeometry width="50" height="50" relative="1" as="geometry">
            <mxPoint x="319.9999999999999" y="1869.79" as="sourcePoint" />
            <mxPoint x="-160" y="1869" as="targetPoint" />
          </mxGeometry>
        </mxCell>
        <mxCell id="tamoDQdrDfBCyCGHD9lu-15" value="" style="rounded=0;whiteSpace=wrap;html=1;" parent="1" vertex="1">
          <mxGeometry x="590" y="1720" width="100" height="40" as="geometry" />
        </mxCell>
        <mxCell id="tamoDQdrDfBCyCGHD9lu-16" value="Кнопка Скачать&amp;nbsp;" style="text;html=1;strokeColor=none;fillColor=none;align=center;verticalAlign=middle;whiteSpace=wrap;rounded=0;" parent="1" vertex="1">
          <mxGeometry x="620" y="1730" width="40" height="20" as="geometry" />
        </mxCell>
        <mxCell id="tamoDQdrDfBCyCGHD9lu-17" value="" style="endArrow=none;html=1;entryX=0.5;entryY=1;entryDx=0;entryDy=0;" parent="1" edge="1">
          <mxGeometry width="50" height="50" relative="1" as="geometry">
            <mxPoint x="639.58" y="2000" as="sourcePoint" />
            <mxPoint x="639.58" y="1760" as="targetPoint" />
          </mxGeometry>
        </mxCell>
        <mxCell id="tamoDQdrDfBCyCGHD9lu-18" value="" style="endArrow=classic;html=1;" parent="1" edge="1">
          <mxGeometry width="50" height="50" relative="1" as="geometry">
            <mxPoint x="480" y="1880" as="sourcePoint" />
            <mxPoint x="640" y="1880" as="targetPoint" />
          </mxGeometry>
        </mxCell>
        <mxCell id="tamoDQdrDfBCyCGHD9lu-19" value="Нажатие&amp;nbsp;" style="text;html=1;strokeColor=none;fillColor=none;align=center;verticalAlign=middle;whiteSpace=wrap;rounded=0;" parent="1" vertex="1">
          <mxGeometry x="540" y="1860" width="40" height="20" as="geometry" />
        </mxCell>
        <mxCell id="tamoDQdrDfBCyCGHD9lu-21" value="" style="rounded=0;whiteSpace=wrap;html=1;" parent="1" vertex="1">
          <mxGeometry x="750" y="1720" width="100" height="40" as="geometry" />
        </mxCell>
        <mxCell id="tamoDQdrDfBCyCGHD9lu-22" value="БД" style="text;html=1;strokeColor=none;fillColor=none;align=center;verticalAlign=middle;whiteSpace=wrap;rounded=0;" parent="1" vertex="1">
          <mxGeometry x="780" y="1730" width="40" height="20" as="geometry" />
        </mxCell>
        <mxCell id="tamoDQdrDfBCyCGHD9lu-23" value="" style="endArrow=none;html=1;entryX=0.5;entryY=1;entryDx=0;entryDy=0;" parent="1" edge="1">
          <mxGeometry width="50" height="50" relative="1" as="geometry">
            <mxPoint x="799.5799999999999" y="2000" as="sourcePoint" />
            <mxPoint x="799.5799999999999" y="1760" as="targetPoint" />
          </mxGeometry>
        </mxCell>
        <mxCell id="tamoDQdrDfBCyCGHD9lu-24" value="" style="endArrow=classic;html=1;" parent="1" edge="1">
          <mxGeometry width="50" height="50" relative="1" as="geometry">
            <mxPoint x="640" y="1890" as="sourcePoint" />
            <mxPoint x="800" y="1890" as="targetPoint" />
          </mxGeometry>
        </mxCell>
        <mxCell id="tamoDQdrDfBCyCGHD9lu-25" value="Запрос на проверку" style="text;html=1;strokeColor=none;fillColor=none;align=center;verticalAlign=middle;whiteSpace=wrap;rounded=0;" parent="1" vertex="1">
          <mxGeometry x="640" y="1860" width="160" height="40" as="geometry" />
        </mxCell>
        <mxCell id="tamoDQdrDfBCyCGHD9lu-27" value="Проверка" style="text;html=1;strokeColor=none;fillColor=none;align=center;verticalAlign=middle;whiteSpace=wrap;rounded=0;" parent="1" vertex="1">
          <mxGeometry x="810" y="1870" width="40" height="20" as="geometry" />
        </mxCell>
        <mxCell id="tamoDQdrDfBCyCGHD9lu-28" value="" style="endArrow=classic;html=1;exitX=1;exitY=0.75;exitDx=0;exitDy=0;" parent="1" source="tamoDQdrDfBCyCGHD9lu-25" edge="1">
          <mxGeometry width="50" height="50" relative="1" as="geometry">
            <mxPoint x="920" y="2000" as="sourcePoint" />
            <mxPoint x="800" y="1930" as="targetPoint" />
            <Array as="points">
              <mxPoint x="830" y="1910" />
            </Array>
          </mxGeometry>
        </mxCell>
        <mxCell id="tamoDQdrDfBCyCGHD9lu-29" value="" style="rounded=0;whiteSpace=wrap;html=1;" parent="1" vertex="1">
          <mxGeometry x="910" y="1720" width="100" height="40" as="geometry" />
        </mxCell>
        <mxCell id="tamoDQdrDfBCyCGHD9lu-30" value="Фотография&amp;nbsp;" style="text;html=1;strokeColor=none;fillColor=none;align=center;verticalAlign=middle;whiteSpace=wrap;rounded=0;" parent="1" vertex="1">
          <mxGeometry x="940" y="1730" width="40" height="20" as="geometry" />
        </mxCell>
        <mxCell id="tamoDQdrDfBCyCGHD9lu-31" value="" style="endArrow=none;html=1;entryX=0.5;entryY=1;entryDx=0;entryDy=0;" parent="1" edge="1">
          <mxGeometry width="50" height="50" relative="1" as="geometry">
            <mxPoint x="959.5799999999999" y="2000" as="sourcePoint" />
            <mxPoint x="959.5799999999999" y="1760" as="targetPoint" />
          </mxGeometry>
        </mxCell>
        <mxCell id="tamoDQdrDfBCyCGHD9lu-32" value="" style="endArrow=classic;html=1;" parent="1" edge="1">
          <mxGeometry width="50" height="50" relative="1" as="geometry">
            <mxPoint x="800" y="1940" as="sourcePoint" />
            <mxPoint x="960" y="1940" as="targetPoint" />
          </mxGeometry>
        </mxCell>
        <mxCell id="tamoDQdrDfBCyCGHD9lu-33" value="Получение" style="text;html=1;strokeColor=none;fillColor=none;align=center;verticalAlign=middle;whiteSpace=wrap;rounded=0;" parent="1" vertex="1">
          <mxGeometry x="860" y="1920" width="40" height="20" as="geometry" />
        </mxCell>
        <mxCell id="tamoDQdrDfBCyCGHD9lu-34" value="" style="endArrow=classic;html=1;" parent="1" edge="1">
          <mxGeometry width="50" height="50" relative="1" as="geometry">
            <mxPoint x="800" y="1940" as="sourcePoint" />
            <mxPoint x="-160.75" y="1940" as="targetPoint" />
          </mxGeometry>
        </mxCell>
        <mxCell id="tamoDQdrDfBCyCGHD9lu-35" value="Сообщение" style="text;html=1;strokeColor=none;fillColor=none;align=center;verticalAlign=middle;whiteSpace=wrap;rounded=0;" parent="1" vertex="1">
          <mxGeometry x="80" y="1920" width="40" height="20" as="geometry" />
        </mxCell>
        <mxCell id="KDbE1RQoFPXOzxjJ0KeI-1" value="" style="rounded=0;whiteSpace=wrap;html=1;" vertex="1" parent="1">
          <mxGeometry x="1350" y="369.83000000000004" width="120" height="60" as="geometry" />
        </mxCell>
        <mxCell id="KDbE1RQoFPXOzxjJ0KeI-2" value="" style="rounded=0;whiteSpace=wrap;html=1;" vertex="1" parent="1">
          <mxGeometry x="1320" y="189.83" width="120" height="60" as="geometry" />
        </mxCell>
        <mxCell id="KDbE1RQoFPXOzxjJ0KeI-3" value="" style="rounded=0;whiteSpace=wrap;html=1;" vertex="1" parent="1">
          <mxGeometry x="1560" y="410" width="120" height="60" as="geometry" />
        </mxCell>
        <mxCell id="KDbE1RQoFPXOzxjJ0KeI-4" value="" style="rounded=0;whiteSpace=wrap;html=1;" vertex="1" parent="1">
          <mxGeometry x="1180" y="159.83" width="120" height="60" as="geometry" />
        </mxCell>
        <mxCell id="KDbE1RQoFPXOzxjJ0KeI-5" value="" style="rounded=0;whiteSpace=wrap;html=1;" vertex="1" parent="1">
          <mxGeometry x="1181" y="309.83000000000004" width="120" height="60" as="geometry" />
        </mxCell>
        <mxCell id="KDbE1RQoFPXOzxjJ0KeI-6" value="" style="rounded=0;whiteSpace=wrap;html=1;" vertex="1" parent="1">
          <mxGeometry x="1050" y="410" width="120" height="60" as="geometry" />
        </mxCell>
        <mxCell id="KDbE1RQoFPXOzxjJ0KeI-7" value="" style="rounded=0;whiteSpace=wrap;html=1;" vertex="1" parent="1">
          <mxGeometry x="1300" y="20" width="120" height="60" as="geometry" />
        </mxCell>
        <mxCell id="KDbE1RQoFPXOzxjJ0KeI-8" value="" style="rounded=0;whiteSpace=wrap;html=1;" vertex="1" parent="1">
          <mxGeometry x="1000" y="70" width="120" height="60" as="geometry" />
        </mxCell>
        <mxCell id="KDbE1RQoFPXOzxjJ0KeI-9" value="" style="rounded=0;whiteSpace=wrap;html=1;" vertex="1" parent="1">
          <mxGeometry x="1490" y="99.83000000000001" width="120" height="60" as="geometry" />
        </mxCell>
        <mxCell id="KDbE1RQoFPXOzxjJ0KeI-10" value="" style="rounded=0;whiteSpace=wrap;html=1;" vertex="1" parent="1">
          <mxGeometry x="1580" y="239.83" width="120" height="60" as="geometry" />
        </mxCell>
        <mxCell id="KDbE1RQoFPXOzxjJ0KeI-11" value="" style="rounded=0;whiteSpace=wrap;html=1;" vertex="1" parent="1">
          <mxGeometry x="1010" y="249.83000000000004" width="120" height="60" as="geometry" />
        </mxCell>
      </root>
    </mxGraphModel>
  </diagram>
</mxfile>
